<?xml version="1.0" encoding="UTF-8" standalone="no"?>
<!DOCTYPE svg PUBLIC "-//W3C//DTD SVG 1.1//EN" "http://www.w3.org/Graphics/SVG/1.1/DTD/svg11.dtd">
<svg width="100%" height="100%" viewBox="0 0 400 400" version="1.1" xmlns="http://www.w3.org/2000/svg" xmlns:xlink="http://www.w3.org/1999/xlink" xml:space="preserve" xmlns:serif="http://www.serif.com/" style="fill-rule:evenodd;clip-rule:evenodd;stroke-linejoin:round;stroke-miterlimit:2;">
    <g transform="matrix(1,0,0,1,-2037.13,-2114.13)">
        <g transform="matrix(0.600826,0,0,0.600826,813.167,843.903)">
            <g transform="matrix(1.77062,0,0,1.77062,-2642.62,-2473.55)">
                <circle cx="2831" cy="2779" r="187.999" style="fill:rgb(87,87,89);"/>
            </g>
            <g transform="matrix(0.357204,0,0,0.5,1801.65,1222.5)">
                <rect x="2235" y="2404" width="288" height="90" style="fill:rgb(214,161,29);"/>
            </g>
            <g transform="matrix(0.357204,0,0,0.5,1238.77,1222.5)">
                <rect x="2235" y="2404" width="288" height="90" style="fill:rgb(214,161,29);"/>
            </g>
            <g transform="matrix(0.28776,0,0,0.5,1393.98,1222.5)">
                <rect x="2235" y="2404" width="288" height="90" style="fill:rgb(189,142,25);"/>
            </g>
            <circle cx="2370" cy="2447" r="250" style="fill:rgb(218,165,28);"/>
            <g transform="matrix(1,0,0,1,-9,-2)">
                <rect x="2235" y="2404" width="288" height="90" style="fill:rgb(189,142,25);"/>
            </g>
            <g transform="matrix(-4.02599e-05,1,-1,-4.02599e-05,4819.1,68.0986)">
                <rect x="2235" y="2404" width="288" height="90" style="fill:rgb(189,142,25);"/>
            </g>
        </g>
    </g>
</svg>
